<?xml version="1.0" standalone="no"?>
<!DOCTYPE svg PUBLIC "-//W3C//DTD SVG 20010904//EN"
 "http://www.w3.org/TR/2001/REC-SVG-20010904/DTD/svg10.dtd">
<svg version="1.0" xmlns="http://www.w3.org/2000/svg"
 width="644.000000pt" height="644.000000pt" viewBox="0 0 644.000000 644.000000"
 preserveAspectRatio="xMidYMid meet">
<metadata>
Created by potrace 1.16, written by Peter Selinger 2001-2019
</metadata>
<g transform="translate(0.000000,644.000000) scale(0.100000,-0.090000)"
fill="#000000" stroke="none">
<path d="M3036 6379 c-15 -7 -558 -465 -1205 -1020 -899 -771 -1181 -1019
-1198 -1050 l-23 -42 0 -2011 c0 -1289 4 -2024 10 -2046 11 -41 61 -94 103
-109 36 -14 4750 -16 4775 -2 28 15 70 64 82 95 8 21 11 603 10 2048 0 1804
-2 2022 -16 2057 -13 33 -132 139 -697 624 -375 322 -773 663 -884 758 -909
783 -808 701 -876 705 -29 2 -65 -1 -81 -7z m296 -581 c125 -106 607 -519
1072 -918 l845 -725 1 -1862 0 -1863 -660 0 -660 0 0 930 c0 782 -2 935 -14
958 -21 41 -68 81 -107 92 -43 13 -1359 13 -1413 1 -45 -11 -93 -53 -112 -98
-12 -27 -14 -194 -14 -958 l0 -925 -660 0 -660 0 0 1863 1 1862 1071 918 c589
504 1074 917 1078 917 3 0 108 -87 232 -192z m258 -4543 l0 -825 -490 0 -490
0 0 825 0 825 490 0 490 0 0 -825z"/>
</g>
</svg>
